<svg width="35" height="34" viewBox="0 0 35 34" fill="none" xmlns="http://www.w3.org/2000/svg">
<g clip-path="url(#clip0_257_7576)">
<path fill-rule="evenodd" clip-rule="evenodd" d="M17.3415 2.55302C9.25766 2.55302 2.71736 8.99781 2.71736 16.9321C2.71736 24.8664 9.25766 31.3112 17.3415 31.3112C25.4253 31.3112 31.9656 24.8664 31.9656 16.9321C31.9656 8.99781 25.4253 2.55302 17.3415 2.55302ZM0.889404 16.9321C0.889404 7.98231 8.26238 0.739838 17.3415 0.739838C26.4205 0.739838 33.7935 7.98231 33.7935 16.9321C33.7935 25.8819 26.4205 33.1244 17.3415 33.1244C8.26238 33.1244 0.889404 25.8819 0.889404 16.9321Z" fill="#0085FF"/>
<path d="M3.4626 25.1882C4.47215 25.1882 5.29056 24.3764 5.29056 23.375C5.29056 22.3736 4.47215 21.5618 3.4626 21.5618C2.45305 21.5618 1.63464 22.3736 1.63464 23.375C1.63464 24.3764 2.45305 25.1882 3.4626 25.1882Z" fill="#64ED74"/>
<path d="M24.629 32.0494C25.6386 32.0494 26.457 31.2376 26.457 30.2363C26.457 29.2349 25.6386 28.4231 24.629 28.4231C23.6195 28.4231 22.8011 29.2349 22.8011 30.2363C22.8011 31.2376 23.6195 32.0494 24.629 32.0494Z" fill="#FF8D4D"/>
<path d="M27.7203 7.422C28.7298 7.422 29.5482 6.61021 29.5482 5.60881C29.5482 4.60741 28.7298 3.79562 27.7203 3.79562C26.7107 3.79562 25.8923 4.60741 25.8923 5.60881C25.8923 6.61021 26.7107 7.422 27.7203 7.422Z" fill="#FF4D4D"/>
<path d="M23.9083 21.4436L17.3988 23.621L10.9952 21.5062C10.9857 20.1162 10.9756 18.7262 10.965 17.3363C11.9267 17.659 12.707 17.9174 13.238 18.0929C13.746 18.2605 15.9012 18.9544 16.3558 19.122C16.3909 19.1346 16.5501 19.1941 16.7691 19.2654C16.9187 19.3139 16.9936 19.3382 17.0398 19.3492C17.3033 19.4112 17.578 19.4112 17.8415 19.3492C17.9211 19.3296 18.0676 19.2842 18.1759 19.2497C18.3288 19.2012 18.4402 19.1604 18.4681 19.151C18.7069 19.0649 19.3893 18.8377 20.4291 18.4876C21.4911 18.132 21.5994 18.1078 23.2547 17.5579L23.9234 17.3355L23.9083 21.4436Z" fill="#0085FF"/>
<path d="M25.7283 14.7061H25.4568V23.5215H25.7283V14.7061Z" fill="#0085FF"/>
<path d="M25.5779 24.0705C25.8113 24.0705 26.0006 23.8843 26.0006 23.6546C26.0006 23.4249 25.8113 23.2387 25.5779 23.2387C25.3444 23.2387 25.1551 23.4249 25.1551 23.6546C25.1551 23.8843 25.3444 24.0705 25.5779 24.0705Z" fill="#0085FF"/>
<path d="M26.3175 25.2501L25.554 25.2344L24.7913 25.218L25.1909 24.3791L25.5906 23.5395L25.9537 24.3948L26.3175 25.2501Z" fill="#0085FF"/>
<path d="M7.45063 14.9881C7.74681 15.3178 15.7794 17.814 17.437 18.327L27.378 14.9999C27.4297 14.9802 27.4759 14.9485 27.5126 14.9077C27.5493 14.8668 27.5755 14.8178 27.589 14.7649C27.6008 14.6981 27.5912 14.6293 27.5616 14.5681C27.5319 14.5069 27.4836 14.4564 27.4234 14.4234L17.437 11.115L7.84235 14.1868C7.78502 14.197 7.50477 14.2526 7.375 14.4837C7.33379 14.5507 7.3128 14.6278 7.31449 14.7061C7.3295 14.8116 7.37701 14.91 7.45063 14.9881Z" fill="#0085FF"/>
</g>
<defs>
<clipPath id="clip0_257_7576">
<rect width="34" height="33" fill="white" transform="translate(0.5 0.5)"/>
</clipPath>
</defs>
</svg>
